<svg viewBox="0 0 81 100" xmlns="http://www.w3.org/2000/svg"><path d="M71.683 0h-29.365c-5.082 0-9.318 4.167-9.318 9.167v81.667c0 5 4.235 9.167 9.318 9.167h29.365c5.082 0 9.318-4.167 9.318-9.167v-81.667c0-5-4.235-9.167-9.318-9.167zm-14.682 2.778c.847 0 1.412.556 1.412 1.389s-.565 1.389-1.412 1.389-1.412-.556-1.412-1.389.565-1.389 1.412-1.389zm-4.235 5.556h8.471c.847 0 1.412.556 1.412 1.389s-.565 1.389-1.412 1.389h-8.471c-.847 0-1.412-.556-1.412-1.389s.565-1.389 1.412-1.389zm4.235 88.889c-2.259 0-4.235-1.944-4.235-4.167 0-2.222 1.976-4.167 4.235-4.167 2.259 0 4.235 1.944 4.235 4.167 0 2.222-1.976 4.167-4.235 4.167zm21.176-11.111h-42.353v-72.222h42.353v72.222zM23.399 48.499c1.436.829 1.432 2.175 0 3.002l-20.8 12.009c-1.436.829-2.6.153-2.6-1.501v-24.018c0-1.658 1.168-2.328 2.6-1.501l20.8 12.009z"/></svg>