<svg viewBox="0 0 200 200" xmlns="http://www.w3.org/2000/svg">
    <g fill="none">
        <circle fill="#E6162D" cx="100" cy="100" r="100"/>
        <path d="M100.356 103.184l-26.866 26.866c-.781.781-2.047.781-2.828 0-.781-.781-.781-2.047 0-2.828l26.866-26.866-27.578-27.578c-.781-.781-.781-2.047 0-2.828.781-.781 2.047-.781 2.828 0l27.578 27.578 26.866-26.866c.781-.781 2.047-.781 2.828 0 .781.781.781 2.047 0 2.828l-26.866 26.866 26.163 26.163c.781.781.781 2.047 0 2.828-.781.781-2.047.781-2.828 0l-26.163-26.163z" stroke="#fff" stroke-width="4" stroke-linecap="round"/>
    </g>
</svg>