<svg viewBox="0 0 122 100" xmlns="http://www.w3.org/2000/svg">
    <path d="M119.165 0h-115.492c-1.879 0-3.673 1.513-3.673 3.361v75.798c0 1.849 1.879 3.277 3.673 3.277h46.983l-1.196 7.563c-.256 1.765-1.367 4.454-2.477 5.882l-1.196 1.513c-1.11 1.429-.513 2.605 1.367 2.605h28.36c1.879 0 2.477-1.176 1.367-2.605l-1.196-1.513c-1.11-1.429-2.221-4.118-2.477-5.966l-1.196-7.563h46.983c1.879 0 2.99-1.429 2.99-3.277v-75.714c.171-1.849-1.025-3.361-2.819-3.361zm-58.088 1.681c.256 0 .427.168.427.42s-.171.42-.427.42-.427-.168-.427-.42.171-.42.427-.42zm56.806 65.546h-113.612v-63.025h113.612v63.025z" fill="#fff"/>
</svg>