<?xml version="1.0" encoding="UTF-8"?><!DOCTYPE svg PUBLIC "-//W3C//DTD SVG 1.1//EN" "http://www.w3.org/Graphics/SVG/1.1/DTD/svg11.dtd"><svg xmlns="http://www.w3.org/2000/svg"><symbol id="camera" viewBox="0 0 512 416"><path d="M152 240c0 57.438 46.562 104 104 104s104-46.562 104-104-46.562-104-104-104-104 46.562-104 104zM480 64H368c-8-32-16-64-48-64H192c-32 0-40 32-48 64H32C14.4 64 0 78.4 0 96v288c0 17.6 14.4 32 32 32h448c17.6 0 32-14.4 32-32V96c0-17.6-14.4-32-32-32zM256 382c-78.425 0-142-63.574-142-142S177.575 98 256 98c78.426 0 142 63.575 142 142s-63.573 142-142 142zm201-234c13.807 0 25-11.193 25-25s-11.193-25-25-25-25 11.193-25 25 11.193 25 25 25z" fill="#000" fill-rule="evenodd"/></symbol><symbol id="cancel" viewBox="0 0 200 200"><g fill="none"><circle fill="#E6162D" cx="100" cy="100" r="100"/><path d="M100.356 103.184L73.49 130.05c-.78.78-2.047.78-2.828 0-.78-.78-.78-2.047 0-2.828l26.866-26.866L69.95 72.778c-.78-.78-.78-2.047 0-2.828.78-.78 2.047-.78 2.828 0l27.578 27.578 26.866-26.866c.78-.78 2.047-.78 2.828 0 .78.78.78 2.047 0 2.828l-26.866 26.866 26.163 26.163c.78.78.78 2.046 0 2.827-.78.78-2.047.78-2.828 0l-26.164-26.163z" stroke="#fff" stroke-width="4" stroke-linecap="round"/></g></symbol><symbol id="deckard" viewBox="0 0 54 67"><g transform="translate(2)" fill="none"><path d="M25 30c8.284 0 15-6.716 15-15 0-8.284-6.716-15-15-15-8.284 0-15 6.716-15 15 0 8.284 6.716 15 15 15zm-3.498 20.19c1.932 3.347 5.065 3.346 6.997 0l5.993-10.38c1.932-3.347.364-6.06-3.498-6.06H19.007c-3.864 0-5.43 2.714-3.498 6.06l5.993 10.38z" fill="#FFF"/><circle stroke="#FFF" stroke-width="3" cx="25" cy="40" r="25"/></g></symbol><symbol id="eyeball-instagram" viewBox="0 0 130 130"><g fill="none"><circle stroke="#3F5D87" stroke-width="5" cx="65" cy="65" r="50"/><path d="M65 81c8.837 0 16-7.163 16-16s-7.163-16-16-16-16 7.163-16 16 7.163 16 16 16zm6.5-19c1.933 0 3.5-1.567 3.5-3.5S73.433 55 71.5 55 68 56.567 68 58.5s1.567 3.5 3.5 3.5z" fill="#3F5D87"/><path d="M81 81.5l12.02 12.02m-18.628-7.543l7.185 15.407M66.65 87.924l1.483 16.935M58.71 87.105l-4.4 16.42m-2.78-19.904l-9.752 13.926m4.194-19.656l-13.926 9.75M42.71 70.608l-16.42 4.4m15.846-12.36L25.2 61.163m19.12-6.196l-15.406-7.185M49 48.5L36.98 36.48m18.628 7.543l-7.185-15.407m14.926 13.46L61.866 25.14m9.422 17.754l4.4-16.42m2.78 19.904l9.752-13.926m-4.194 19.656l13.926-9.75M87.29 59.392l16.42-4.4m-15.846 12.36l16.935 1.483m-19.12 6.196l15.406 7.185" stroke="#3F5D87"/></g></symbol><symbol id="eyeball-twitter" viewBox="0 0 130 130"><g fill="none"><circle stroke="#2AA9E0" stroke-width="5" cx="65" cy="65" r="50"/><path d="M65 81c8.837 0 16-7.163 16-16s-7.163-16-16-16-16 7.163-16 16 7.163 16 16 16zm6.5-19c1.933 0 3.5-1.567 3.5-3.5S73.433 55 71.5 55 68 56.567 68 58.5s1.567 3.5 3.5 3.5z" fill="#2AA9E0"/><path d="M81 81.5l12.02 12.02m-18.628-7.543l7.185 15.407M66.65 87.924l1.483 16.935M58.71 87.105l-4.4 16.42m-2.78-19.904l-9.752 13.926m4.194-19.656l-13.926 9.75M42.71 70.608l-16.42 4.4m15.846-12.36L25.2 61.163m19.12-6.196l-15.406-7.185M49 48.5L36.98 36.48m18.628 7.543l-7.185-15.407m14.926 13.46L61.866 25.14m9.422 17.754l4.4-16.42m2.78 19.904l9.752-13.926m-4.194 19.656l13.926-9.75M87.29 59.392l16.42-4.4m-15.846 12.36l16.935 1.483m-19.12 6.196l15.406 7.185" stroke="#2AA9E0"/></g></symbol><symbol id="eyeball-weibo" viewBox="0 0 130 130"><g fill="none"><circle stroke="#E6162D" stroke-width="5" cx="65" cy="65" r="50"/><path d="M65 81c8.837 0 16-7.163 16-16s-7.163-16-16-16-16 7.163-16 16 7.163 16 16 16zm6.5-19c1.933 0 3.5-1.567 3.5-3.5S73.433 55 71.5 55 68 56.567 68 58.5s1.567 3.5 3.5 3.5z" fill="#E6162D"/><path d="M81 81.5l12.02 12.02m-18.628-7.543l7.185 15.407M66.65 87.924l1.483 16.935M58.71 87.105l-4.4 16.42m-2.78-19.904l-9.752 13.926m4.194-19.656l-13.926 9.75M42.71 70.608l-16.42 4.4m15.846-12.36L25.2 61.163m19.12-6.196l-15.406-7.185M49 48.5L36.98 36.48m18.628 7.543l-7.185-15.407m14.926 13.46L61.866 25.14m9.422 17.754l4.4-16.42m2.78 19.904l9.752-13.926m-4.194 19.656l13.926-9.75M87.29 59.392l16.42-4.4m-15.846 12.36l16.935 1.483m-19.12 6.196l15.406 7.185" stroke="#E6162D"/></g></symbol><symbol id="favorite" viewBox="0 0 20 20"><path d="M10 5.6C9.1 3.7 7.4 3 6.1 3 4.1 3 2 4.5 2 7.7c0 2.3 1.3 4.8 3.9 7.2 1.9 1.8 3.8 2.9 3.9 3l.2.1c.1 0 .2 0 .2-.1.1 0 2-1.2 3.9-3C16.7 12.4 18 10 18 7.7 18 4.5 15.9 3 13.9 3c-1.3 0-3 .7-3.9 2.6z" fill="#DB4437"/></symbol><symbol id="geoPicker" viewBox="0 0 100 150"><path d="M50 150c15.56 0 50-71.277 50-99.286C100 22.706 77.614 0 50 0S0 22.706 0 50.714C0 78.724 34.44 150 50 150zm0-75c13.807 0 25-11.193 25-25S63.807 25 50 25 25 36.193 25 50s11.193 25 25 25z" fill="#000" fill-rule="evenodd"/></symbol><symbol id="instagram" viewBox="0 0 775 300"><path d="M44.406 41C37.32 41 28.13 48.52 22.71 53.527 10.793 64.114 0 83.577 0 99.2c0 22.2 18.866 30.58 23.637 30.58 1.573 0 2.914-.81 2.914-2.948 0-1.674-1.06-3.068-2.116-4.5-4.37-6.685-5.773-13.064-5.773-21.668 0-17.94 8.27-34.383 15.127-41.906 1.264-1.36 4.122-4.303 4.977-4.303.848 0 1.06.69 1.06 2.83L39.025 174.7c0 18.355-5.293 25.648-5.293 29.97 0 1.898.82 2.39 2.39 2.39 7.428 0 14.83-9.058 16.927-12.362 6.503-11.24 8.098-20.015 8.098-45.325V50.71c0-2.672-.75-3.825-3.285-5.473C54.157 42.88 49.91 41 44.407 41zm212.363.328c-3.494 0-4.988 1.827-5.152 7.48l-.775 23.417-20.463-.71c-1.24-.032-1.803.36-2.346 1.453-1.738 3.262-2.652 5.816-2.652 10.07 0 3.464 1.57 3.833 2.968 3.833l21.292.613-.065 44.735c0 9.488-5.982 21.797-16.6 32.033 0 0 .914-3.09.863-6.334 0-9.18-5.904-17.497-13.773-23.383l-19.207-14.46c4.026-4.66 10.848-13.907 10.848-21.712 0-6.05-3.803-8.594-10.892-8.594-10.006 0-21.608 9.17-21.608 22.772 0 4.957 2.204 9.42 5.555 12.833-4.626 8.786-11.172 20.343-16.032 28.572-3.67 6.302-9.88 15.957-13.553 15.957-2.71 0-3.962-4.267-3.962-20.654 0-13.615.966-28.417 1.45-42.627 0-3.258-.534-6.263-4.757-9.208-3.886-2.492-8.687-5.974-13.63-5.974-10.992 0-18.48 10.122-23.617 20.02-5.314 10.256-8.188 18.9-12.244 31.442l.447-43.162c.138-3.077-.638-4.272-3.1-5.32-3.19-1.354-7.89-2.915-12.058-2.915-3.484 0-3.907 1.502-3.907 5.166l-.47 51.79-.053 19.975c0 18.01 2.254 21.013 12.932 21.013 5.912 0 7.807-.695 7.923-5.614.162-3.254 1.716-11.134 3.82-19.036 6.15-23.328 13.44-41.78 26.006-55.842 1.31-1.364 2.323-.876 2.117 1.06 0 0-1.986 31.57-1.986 44.483 0 22.965 3.53 34.948 14.95 34.948 11.208 0 22.214-14.41 28.223-24.137l19.273-32.26c12.49 10.65 21.205 18.907 21.205 28.952 0 6.243-3.937 12.352-9.93 12.352-7.495 0-12.282-7.907-17.342-7.907-4.2 0-9.593 8.116-9.593 12.724 0 4.352 9.486 10.508 26.508 10.508 25.13 0 38.608-17.258 46.7-36.37 1.548 22.683 10.578 35.933 24.663 35.933 9.24 0 19.917-11.68 24.773-25.95 0 0 .48 3.705 4.17 11.294 5.076 9.91 12.795 14.46 22.382 14.46 11.925 0 22.125-7.235 28.353-19.375.945 9.198 8.663 19.33 21.075 19.33 7.79 0 14.895-5.974 19.557-15.815 0 0 6.04 16.25 23.507 16.25 9.81 0 21.43-9.094 24.205-15.704l.306 9.612-25.918 23.918c-7.525 7.31-15.53 17.816-15.53 29.445 0 14.79 13.955 23.296 26.236 23.296 12.765 0 21.235-8.092 25.876-14.874 5.84-8.775 8.305-25.315 8.305-41.48l-.58-24.31c17.47-19.217 31.14-45.777 37.226-64.57l13.26-.35c2.568-.17 2.442.84 2.084 2.338-2.33 9.855-4.365 21.016-4.365 32.13 0 18.364 4.227 26.355 10.302 32.886 5.28 5.472 10.535 7.317 16.064 7.317 10.814 0 17.6-8.936 19.754-14.57 5.077 9.91 12.556 14.527 22.143 14.527 11.925 0 22.125-7.235 28.353-19.375.944 9.198 8.662 19.33 21.074 19.33 9.273 0 14.65-5.356 18.88-15.443.087 3.245.21 6.705.306 9.95.11 1.678 1.452 2.74 2.652 3.178 3.942 1.492 7.402 2.24 10.51 2.24 8.106 0 9.866-1.667 9.866-6.97 0-8.744.256-22.564 2.74-33.66 2.636-11.043 6.613-23.55 12.102-32.25.494-.9 1.706-.664 1.757.425.788 18.617 2.033 50.13 6.92 58.29 2.41 3.89 6.14 6.727 11.72 6.727 2.618 0 5.824-1.117 6.646-1.813.832-.65 1.25-1.37 1.2-2.71 0-23.798 7.415-46.837 14.842-62.33.203-.458.782-.494.764.11l-.416 17.147c0 28.165 2.03 45.958 16.086 54.51 2.152 1.196 5.176 2.35 9.047 2.35 7.192 0 13.714-4.02 16.937-10.486C772.54 173.24 775 163.57 775 158.092c0-2.12.025-5.57-3.45-5.57-1.904 0-3.047 1.404-3.502 3.528-1.107 4.6-2.016 8.545-3.732 13.095-1.642 4.342-4.093 6.87-6.995 6.87-3.412 0-5.142-2.687-6.132-4.347-4.355-6.645-4.704-21.912-4.704-34.654l1.048-32.798c0-2.713-1.132-5.96-5.315-8.355-2.81-1.617-9.912-4.663-14.264-4.663-4.035 0-5.988 2.29-7.443 5.646-2.73 6.03-11.86 29.686-14.307 48.918-.088.508-.718.615-.764-.032-1.273-13.6-1.926-29.987-1.91-41.043 0-3.342-.818-8.12-7.902-11.217-3.442-1.43-6.29-2.304-9.767-2.304-4.315 0-5.242 2.113-6.787 4.915-4.888 9.037-8.27 20.824-13.336 35.69l.076-34.02c0-1.59-.974-3.677-3.765-4.238-6.92-1.59-10.127-2.315-12.856-2.315-1.986 0-3.078 1.585-3.078 3.298l-.37 58.005c-1.34 7.102-6.764 24.05-14.46 24.05-6.318 0-9.266-6.406-9.266-33.18l1.146-43.513c0-2.75-1.803-3.904-4.43-5.068-3.758-1.495-6.747-2.087-10.565-2.087-4.793 0-6.44 2.296-5.47 7.81-5.268-7.133-10.534-11.076-19.84-11.076-18.68 0-32.76 22.488-32.76 55.165-.185 9.164 2.03 18.272 2.03 18.272-1.69 7.605-5.665 13.805-11.154 13.805-6.925 0-11.34-9.8-11.34-26.78 0-17.032 6.484-36.242 6.484-41.448 0-6.054-3.963-9.884-10.98-9.884-3.515 0-16.55 2.96-23.233 3.932 0 0 .753-3.185.698-5.69 0-5.97-2.8-9.71-9.746-9.71-8.492 0-14.723 6.068-14.723 16.416 0 4.645 2.672 8.94 6.21 11.25-4.592 19.165-12.058 33.42-23.06 49.343l.928-64.482c0-2.096-.557-3.398-4.66-4.99-2.17-.94-5.704-2.02-10.16-2.02-6.458 0-6.032 4.615-5.686 8.07-2.956-5.244-9.426-11.468-19.405-11.468-27.197 0-35.547 41.504-31.452 70.98 0 3.593-3.505 16.35-11.426 16.35-6.317 0-9.265-6.406-9.265-33.18l1.157-43.513c0-2.75-1.815-3.904-4.443-5.068-3.757-1.495-6.735-2.087-10.553-2.087-4.792 0-6.438 2.296-5.468 7.81-5.27-7.133-10.546-11.076-19.85-11.076-18.68 0-32.948 20.566-32.948 53.243 0 12.474-10.732 31.51-18.258 31.51-4.18 0-8.632-7.68-8.632-27.305.02-13.376 1.844-58.91 1.844-58.91l26.268-.427c1.254-.012 1.98-1.383 2.445-2.228 1.207-2.45 1.79-4.08 1.79-7.012 0-2.645-.53-3.61-3.918-3.8l-26.18-1.574 1.112-24.41c.076-1.542-.852-2.546-2.533-3.298-5.073-1.98-11.287-3.9-15.224-3.9zm79.503 63.957c7.004 0 14.11 6.393 14.11 29.073 0 28.556-10.395 41.84-18.388 41.84-7.494 0-13.183-10.584-13.183-31.377 0-21.016 5.555-39.535 17.46-39.535zm252.23 0c7.003 0 14.11 6.393 14.11 29.073 0 28.556-10.396 41.84-18.39 41.84-7.493 0-13.182-10.584-13.182-31.377 0-21.016 5.556-39.535 17.462-39.535zm-159.98.13c9.14 0 13.183 9.428 13.183 27.71 0 27.557-8.185 43.25-18.127 43.25-6.348 0-13.645-10.43-13.26-30.942 0-13.116 4.272-40.017 18.202-40.017zm15.475 92.19v10.856c0 36.02-9.59 42.17-17.298 42.17-2.92 0-10.073-2.207-10.073-11.12 0-12.456 13.014-26.627 17.058-31.005l10.313-10.9z" fill="#3F5D87"/></symbol><symbol id="newTweet" viewBox="0 0 200 200"><g fill="none"><circle fill="#2AA9E0" cx="100" cy="100" r="100"/><path d="M143 57s-.108 5.596-6.828 11.407c-5.42 4.735-10.946 7.317-14.848 11.945 3.902.215 10.838-1.507 16.04-4.304-.867 2.475-1.626 4.197-3.25 6.457-4.878 6.564-9.972 8.932-18.317 11.514-4.77 1.506-7.803 5.487-7.803 5.487 5.094.215 10.08-.753 15.065-2.583-1.952 8.824-17.342 14.742-24.495 15.603 0 0 0 .108-.108.108-9.646 1.614-18.424 10.976-25.794 22.706-3.576 5.704-6.394 9.9-8.454 13.022-3.144 4.95-6.287 9.04-7.48 8.61-1.19-.43-1.083-4.52 1.518-11.192 1.41-3.66 8.128-19.154 19.508-35.834C92.386 88.21 114.063 63.566 143 57.002z" fill="#fff"/></g></symbol><symbol id="ok" viewBox="0 0 200 200"><g fill="none"><circle fill="#59DE5D" cx="100" cy="100" r="100"/><path d="M78 137.05l68.236-68.236c1.367-1.367 3.583-1.367 4.95 0s1.367 3.583 0 4.95l-70.71 70.71c-.684.684-1.58 1.026-2.476 1.026-.896 0-1.79-.342-2.475-1.025L50.07 119.02c-1.368-1.368-1.368-3.584 0-4.95s3.582-1.368 4.95 0L78 137.05z" fill="#fff"/></g></symbol><symbol id="play" viewBox="0 0 100 100"><path d="M28.056 82.145C24.712 84.075 22 82.507 22 78.65V23.35c0-3.862 2.714-5.425 6.056-3.496l47.89 27.65c3.343 1.93 3.34 5.062 0 6.99l-47.89 27.65z" stroke="#CECECF" stroke-linecap="round" stroke-linejoin="round" fill="#F1F1F1"/></symbol><symbol id="rachael" viewBox="0 0 54 67"><g transform="translate(2)" fill="none"><path d="M25 30c8.284 0 15-6.716 15-15 0-8.284-6.716-15-15-15-8.284 0-15 6.716-15 15 0 8.284 6.716 15 15 15zm-3.498 5.81c1.932-3.347 5.065-3.346 6.997 0l5.993 10.38c1.932 3.347.364 6.06-3.498 6.06H19.007c-3.864 0-5.43-2.714-3.498-6.06l5.993-10.38z" fill="#FFF"/><circle stroke="#FFF" stroke-width="3" cx="25" cy="40" r="25"/></g></symbol><symbol id="reply" viewBox="0 0 20 20"><path d="M8.667 2c3.682 0 6.667 2.548 6.667 5.69 0 3.143-2.985 5.69-6.667 5.69-.354 0-.7-.024-1.04-.07-1.43 1.505-3.085 1.775-4.737 1.815v-.368c.892-.46 1.61-1.296 1.61-2.252l-.027-.392C2.965 11.07 2 9.476 2 7.69 2 4.55 4.987 2 8.67 2zm7.167 12.754c0 .82.504 1.537 1.278 1.93V17c-1.432-.034-2.747-.265-3.988-1.555-.294.04-.594.06-.9.06-1.327 0-2.548-.378-3.523-1.012 2.01-.007 3.907-.686 5.346-1.914.725-.62 1.297-1.346 1.7-2.16.427-.86.644-1.78.644-2.73l-.017-.457c1.008.878 1.63 2.075 1.63 3.394 0 1.53-.837 2.896-2.143 3.79l-.024.336z" fill="#1D9035"/></symbol><symbol id="retweet" viewBox="0 0 28 20"><path d="M15.892 14.8c-.075-.095-.18-.143-.312-.143H8.39V9.674h2.397c.216 0 .404-.082.562-.247.157-.164.236-.36.236-.584 0-.208-.063-.385-.187-.532L7.404 3.33c-.158-.19-.362-.285-.612-.285s-.453.095-.61.285L2.187 8.31C2.063 8.46 2 8.636 2 8.844c0 .225.08.42.238.584.158.164.345.247.562.247h2.396v7.787l.012.15.038.15.07.103.11.09.17.027h11.982c.108 0 .202-.04.28-.123.08-.082.12-.18.12-.292 0-.087-.03-.177-.088-.273L15.893 14.8zm9.273-3.465H22.77V3.548l-.014-.15-.037-.148-.07-.104-.112-.09-.168-.027H10.388c-.108 0-.202.04-.28.122-.08.082-.12.18-.12.292 0 .095.03.182.088.26l1.997 2.492c.075.104.18.156.312.156h7.19v4.983h-2.397c-.216 0-.404.082-.562.246-.158.166-.237.36-.237.585 0 .208.062.385.186.532l3.994 4.983c.166.2.37.3.612.3.24 0 .445-.1.61-.3l3.995-4.983c.125-.147.187-.325.187-.532 0-.225-.08-.42-.237-.584-.158-.163-.345-.246-.562-.246z" fill="#1A7CAB"/></symbol><symbol id="settings" viewBox="0 0 200 200"><g fill="none"><circle fill="#F1F1F1" cx="100" cy="100" r="100"/><circle fill="#2AA9E0" cx="100" cy="42.5" r="15"/><circle fill="#3F5D87" cx="100" cy="100" r="15"/><circle fill="#E6162D" cx="100" cy="157.5" r="15"/></g></symbol><symbol id="source" viewBox="0 0 20 20"><path d="M15.657 15.657C17.167 14.147 18 12.137 18 10s-.832-4.146-2.343-5.657C14.147 2.833 12.137 2 10 2s-4.146.832-5.657 2.343C2.833 5.853 2 7.863 2 10s.832 4.146 2.343 5.657C5.853 17.167 7.863 18 10 18s4.146-.832 5.657-2.343zM14.95 5.05c.985.985 1.64 2.213 1.91 3.548-.21-.31-.41-.425-.536.27-.128 1.13-1.167.408-1.82.81-.69-.464-2.234.9-1.97-.64.404-.693 2.187.93 1.298-.54-.567-1.024-2.073-3.295-1.877-4.472.025-1.715-1.752-.358-2.364.21-.41 1.14-.14 3.132-1.216 3.69-1.17.05-2.172.157-2.625 1.464-.274.935.29 2.326 1.29 2.54 1.467.922 1.99-1.078 3.366-1.115.427.447 1.59.59 1.687 1.09-.902.16 1.145.76-.086 1.1-.68-.08-1.117-.704-.756-1.234-1.315-.306-1.357 1.906-2.623 1.208-.032-1.103-2.066-.358-.704-.134.468.205-.763.797-.098.69.327.017 1.427.402 1.13.662.612.38 1.126-.91 1.726.03.434.722-.18.855-.723.49-.306.342.54 1.08 1.286 1.4.25.108.486.166.668.15.377-.435 1.072-.51 1.108.05-.93.447-1.957.682-3.02.682-1.525 0-2.976-.485-4.177-1.38.324-.15.507-.333.196-.568-.242-.72-1.22-1.686-2.082-1.55-.447-.77-.74-1.618-.867-2.507.72-.238.887-.71.732-.868-.368-.32-.594-.774-.71-1.27.235-1.436.91-2.758 1.957-3.807 1.322-1.322 3.08-2.05 4.95-2.05s3.628.728 4.95 2.05z"/></symbol><symbol id="star" viewBox="0 0 20 20"><path fill="#FFE33B" d="M10 15.627L4.438 19l1.332-6.605L1 7.875l6.386-.71L10 1l2.614 6.166 6.386.71-4.77 4.52L15.562 19z"/></symbol><symbol id="twitter" viewBox="0 0 300 300"><path d="M243 92.756c-6.843 3.012-14.198 5.047-21.916 5.963 7.878-4.687 13.93-12.108 16.778-20.95-7.374 4.34-15.54 7.49-24.233 9.188C206.67 79.598 196.75 75 185.774 75c-21.074 0-38.16 16.954-38.16 37.867 0 2.968.337 5.858.988 8.63-31.715-1.58-59.833-16.655-78.654-39.566-3.286 5.594-5.168 12.098-5.168 19.038 0 13.138 6.737 24.73 16.976 31.52-6.255-.198-12.14-1.9-17.284-4.737l-.004.477c0 18.347 13.154 33.65 30.61 37.132-3.2.865-6.572 1.327-10.052 1.327-2.46 0-4.85-.238-7.18-.68 4.856 15.045 18.95 25.993 35.648 26.297-13.06 10.157-29.514 16.21-47.393 16.21-3.08 0-6.118-.18-9.103-.53C73.888 218.73 93.946 225 115.496 225c70.19 0 108.574-57.702 108.574-107.744 0-1.642-.037-3.274-.11-4.9 7.454-5.338 13.923-12.007 19.04-19.6z" fill="#2AA9E0"/></symbol><symbol id="weibo" viewBox="0 0 300 300"><g fill="none"><path d="M70.608 178.122c0 21.534 28.33 39 63.284 39s63.284-17.466 63.284-39c0-21.538-28.33-39-63.284-39s-63.284 17.462-63.284 39" fill="#fff"/><path d="M135.367 213.943c-30.934 3.02-57.638-10.816-59.65-30.917-2.007-20.097 21.45-38.84 52.38-41.867 30.938-3.03 57.642 10.808 59.65 30.902 2.004 20.107-21.442 38.855-52.38 41.88m61.874-66.723c-2.63-.78-4.435-1.312-3.057-4.733 2.983-7.43 3.293-13.84.057-18.413-6.066-8.576-22.663-8.114-41.69-.23 0-.01-5.973 2.587-4.446-2.102 2.926-9.312 2.485-17.11-2.068-21.612-10.32-10.22-37.77.388-61.308 23.673-17.626 17.447-27.86 35.938-27.86 51.926 0 30.58 39.626 49.174 78.396 49.174 50.82 0 84.627-29.222 84.627-52.423 0-14.015-11.93-21.97-22.648-25.26" fill="#E6162D"/><path d="M230.99 91.254c-12.273-13.466-30.376-18.6-47.087-15.083h-.005c-3.863.818-6.33 4.585-5.5 8.404.822 3.82 4.625 6.264 8.49 5.447 11.888-2.497 24.75 1.16 33.48 10.722 8.715 9.566 11.083 22.612 7.348 34.05h.002c-1.218 3.73.84 7.713 4.61 8.918 3.756 1.2 7.79-.835 9.007-4.55l.002-.027c5.237-16.09 1.93-34.43-10.35-47.88m-18.845 16.833c-5.974-6.557-14.792-9.048-22.934-7.335-3.33.702-5.45 3.944-4.735 7.24.712 3.28 3.984 5.392 7.302 4.676v.005c3.98-.834 8.295.382 11.218 3.58 2.923 3.21 3.71 7.58 2.453 11.413h.005c-1.042 3.2.727 6.638 3.963 7.677 3.24 1.025 6.71-.722 7.754-3.928 2.56-7.84.96-16.77-5.027-23.328" fill="#f93"/><path d="M137.074 177.54c-1.082 1.832-3.475 2.713-5.347 1.948-1.844-.75-2.42-2.797-1.374-4.598 1.08-1.79 3.38-2.664 5.216-1.94 1.868.675 2.537 2.747 1.505 4.59m-9.858 12.522c-2.99 4.725-9.4 6.793-14.226 4.612-4.755-2.142-6.158-7.63-3.164-12.236 2.955-4.587 9.146-6.63 13.938-4.644 4.845 2.044 6.394 7.494 3.453 12.268m11.243-33.436c-14.72-3.79-31.36 3.47-37.755 16.306-6.51 13.093-.214 27.626 14.657 32.38 15.408 4.914 33.564-2.62 39.88-16.75 6.227-13.816-1.55-28.04-16.782-31.936" fill="#000"/><g><path d="M147 50h7v200h-7V50zm42 0h7v200h-7V50zm-84 0h7v200h-7V50zm-42 0h7v200h-7V50zm168 0h7v200h-7V50z" fill="#fff"/><path stroke="#fff" stroke-width="7" d="M20 50h260v200H20z"/></g></g></symbol><symbol id="writing" viewBox="0 0 113 72"><path d="M112.718.903s-1.74 5.32-9.864 8.912c-6.566 2.944-12.607 3.797-17.69 7.082 3.667 1.347 10.804 1.728 16.597.573-1.552 2.113-2.78 3.538-4.996 5.224-6.583 4.85-12.146 5.626-20.882 5.656-5 .046-9.067 2.967-9.067 2.967 4.808 1.695 9.86 2.227 15.16 1.935-4.444 7.868-20.892 9.028-27.984 7.76 0 0-.03.103-.134.07-9.696-1.276-20.828 5.11-31.305 14.173-5.087 4.408-9.008 7.598-11.89 9.98C6.207 69.05 2.006 72.04.992 71.28c-1.014-.76.285-4.638 4.723-10.258 2.417-3.087 13.373-15.94 29.133-28.564C55.195 15.948 83.128-1.28 112.72.903z" fill="#2AA9E0"/></symbol></svg>