<svg xmlns="http://www.w3.org/2000/svg">
    <!-- Social Icon -->
    <symbol id="twitter-icon" viewBox="0 0 300 300">
        <path d="M243 92.756c-6.843 3.012-14.198 5.047-21.916 5.963 7.878-4.686 13.93-12.107 16.778-20.95-7.374 4.34-15.54 7.491-24.233 9.189-6.96-7.36-16.878-11.958-27.854-11.958-21.074 0-38.161 16.954-38.161 37.867 0 2.968.338 5.858.989 8.63-31.715-1.579-59.833-16.655-78.654-39.566-3.285 5.593-5.167 12.097-5.167 19.037 0 13.138 6.737 24.729 16.976 31.519-6.255-.197-12.139-1.9-17.284-4.736l-.004.476c0 18.347 13.154 33.651 30.611 37.132-3.202.866-6.573 1.328-10.053 1.328-2.459 0-4.849-.238-7.18-.679 4.856 15.044 18.949 25.992 35.648 26.296-13.06 10.157-29.514 16.211-47.393 16.211-3.08 0-6.118-.18-9.103-.53 16.888 10.745 36.946 17.014 58.496 17.014 70.19 0 108.574-57.701 108.574-107.743 0-1.642-.037-3.274-.111-4.9 7.455-5.338 13.924-12.007 19.04-19.601h.001z" fill="#2AA9E0"/>
    </symbol>
    <symbol id="instagram-icon" viewBox="0 0 775 300">
        <path d="M44.406 41c-7.087 0-16.276 7.521-21.696 12.527-11.917 10.587-22.711 30.051-22.711 45.674 0 22.2 18.867 30.58 23.638 30.58 1.573 0 2.914-.812 2.914-2.949 0-1.674-1.062-3.068-2.117-4.5-4.369-6.685-5.773-13.064-5.773-21.668 0-17.94 8.268-34.383 15.126-41.906 1.264-1.361 4.122-4.303 4.977-4.303.848 0 1.059.691 1.059 2.829l-.797 117.418c0 18.355-5.293 25.648-5.293 29.969 0 1.899.821 2.392 2.39 2.392 7.428 0 14.83-9.059 16.927-12.363 6.503-11.239 8.098-20.015 8.098-45.325v-98.666c0-2.671-.749-3.824-3.285-5.472-3.706-2.356-7.953-4.238-13.456-4.238zm212.363.328c-3.493 0-4.987 1.827-5.151 7.481l-.775 23.416-20.463-.71c-1.241-.032-1.803.36-2.346 1.453-1.738 3.262-2.652 5.816-2.652 10.07 0 3.464 1.57 3.833 2.968 3.833l21.292.612-.065 44.735c0 9.488-5.982 21.797-16.599 32.033 0 0 .913-3.091.862-6.335 0-9.179-5.904-17.497-13.773-23.383l-19.207-14.46c4.026-4.661 10.848-13.907 10.848-21.712 0-6.052-3.803-8.595-10.892-8.595-10.006 0-21.608 9.171-21.608 22.772 0 4.957 2.204 9.42 5.555 12.833-4.626 8.785-11.172 20.342-16.032 28.571-3.672 6.302-9.882 15.957-13.554 15.957-2.709 0-3.962-4.266-3.962-20.653 0-13.615.966-28.417 1.451-42.627 0-3.257-.535-6.262-4.758-9.207-3.886-2.492-8.687-5.974-13.631-5.974-10.991 0-18.48 10.122-23.616 20.019-5.315 10.257-8.189 18.9-12.245 31.443l.447-43.162c.138-3.077-.638-4.272-3.099-5.319-3.192-1.355-7.891-2.916-12.059-2.916-3.484 0-3.907 1.502-3.907 5.166l-.469 51.79-.054 19.976c0 18.01 2.254 21.013 12.932 21.013 5.912 0 7.807-.695 7.923-5.614.162-3.254 1.716-11.134 3.82-19.036 6.151-23.328 13.44-41.78 26.006-55.842 1.311-1.364 2.323-.876 2.117 1.059 0 0-1.986 31.571-1.986 44.484 0 22.966 3.531 34.949 14.951 34.949 11.207 0 22.213-14.409 28.222-24.137l19.273-32.262c12.489 10.65 21.205 18.908 21.205 28.953 0 6.243-3.937 12.352-9.931 12.352-7.494 0-12.281-7.907-17.341-7.907-4.201 0-9.593 8.116-9.593 12.724 0 4.351 9.486 10.507 26.508 10.507 25.128 0 38.607-17.258 46.698-36.369 1.549 22.682 10.579 35.932 24.664 35.932 9.239 0 19.917-11.682 24.773-25.95 0 0 .48 3.704 4.169 11.293 5.077 9.91 12.796 14.46 22.383 14.46 11.925 0 22.125-7.235 28.353-19.375.944 9.199 8.662 19.331 21.074 19.331 7.791 0 14.895-5.974 19.557-15.815 0 0 6.04 16.251 23.507 16.251 9.812 0 21.43-9.095 24.206-15.705l.306 9.611-25.919 23.918c-7.525 7.311-15.53 17.816-15.53 29.445 0 14.791 13.955 23.296 26.236 23.296 12.765 0 21.235-8.093 25.876-14.875 5.84-8.775 8.305-25.315 8.305-41.48l-.578-24.311c17.468-19.216 31.138-45.776 37.225-64.568l13.26-.35c2.568-.172 2.442.839 2.084 2.337-2.331 9.855-4.365 21.016-4.365 32.131 0 18.363 4.227 26.354 10.302 32.885 5.281 5.472 10.535 7.317 16.064 7.317 10.813 0 17.6-8.936 19.753-14.569 5.077 9.91 12.556 14.526 22.143 14.526 11.925 0 22.125-7.235 28.353-19.375.944 9.199 8.662 19.331 21.074 19.331 9.273 0 14.65-5.356 18.88-15.443.087 3.245.211 6.705.306 9.95.111 1.678 1.452 2.74 2.652 3.178 3.942 1.492 7.402 2.239 10.51 2.239 8.106 0 9.866-1.666 9.866-6.968 0-8.745.256-22.565 2.739-33.66 2.637-11.044 6.614-23.551 12.103-32.252.494-.899 1.706-.663 1.757.426.788 18.617 2.033 50.131 6.919 58.289 2.412 3.891 6.141 6.728 11.721 6.728 2.618 0 5.824-1.117 6.646-1.813.832-.649 1.251-1.369 1.2-2.709 0-23.799 7.415-46.838 14.842-62.33.203-.459.782-.495.764.109l-.415 17.147c0 28.164 2.029 45.957 16.086 54.51 2.152 1.195 5.176 2.348 9.047 2.348 7.192 0 13.714-4.02 16.937-10.485 2.626-5.024 5.086-14.693 5.086-20.172 0-2.121.025-5.57-3.449-5.57-1.905 0-3.048 1.404-3.503 3.528-1.107 4.599-2.016 8.545-3.732 13.095-1.642 4.342-4.093 6.87-6.995 6.87-3.413 0-5.143-2.687-6.133-4.347-4.355-6.645-4.704-21.912-4.704-34.654l1.048-32.798c0-2.713-1.132-5.961-5.315-8.355-2.809-1.618-9.912-4.664-14.264-4.664-4.035 0-5.988 2.289-7.443 5.646-2.731 6.03-11.859 29.686-14.307 48.918-.088.507-.718.614-.764-.033-1.272-13.6-1.925-29.987-1.91-41.043 0-3.342-.817-8.12-7.901-11.217-3.442-1.429-6.291-2.304-9.767-2.304-4.316 0-5.243 2.113-6.788 4.915-4.888 9.038-8.269 20.825-13.336 35.692l.076-34.021c0-1.591-.974-3.677-3.765-4.238-6.92-1.591-10.127-2.315-12.856-2.315-1.986 0-3.078 1.585-3.078 3.298l-.371 58.005c-1.338 7.102-6.763 24.049-14.46 24.049-6.317 0-9.265-6.405-9.265-33.18l1.146-43.512c0-2.749-1.803-3.904-4.431-5.068-3.757-1.494-6.746-2.086-10.564-2.086-4.792 0-6.438 2.296-5.468 7.809-5.269-7.132-10.535-11.075-19.84-11.075-18.68 0-32.762 22.488-32.762 55.165-.184 9.164 2.03 18.272 2.03 18.272-1.69 7.605-5.664 13.805-11.153 13.805-6.925 0-11.339-9.799-11.339-26.78 0-17.031 6.483-36.241 6.483-41.447 0-6.054-3.963-9.884-10.979-9.884-3.516 0-16.551 2.96-23.234 3.932 0 0 .753-3.185.698-5.69 0-5.97-2.799-9.709-9.746-9.709-8.491 0-14.722 6.067-14.722 16.415 0 4.645 2.672 8.94 6.21 11.249-4.592 19.166-12.058 33.42-23.06 49.344l.928-64.481c0-2.096-.557-3.398-4.66-4.991-2.169-.938-5.704-2.02-10.16-2.02-6.458 0-6.032 4.616-5.686 8.071-2.955-5.244-9.425-11.468-19.404-11.468-27.197 0-35.547 41.504-31.452 70.979 0 3.594-3.505 16.35-11.426 16.35-6.317 0-9.265-6.405-9.265-33.18l1.157-43.512c0-2.749-1.814-3.904-4.442-5.068-3.757-1.494-6.735-2.086-10.553-2.086-4.792 0-6.438 2.296-5.468 7.809-5.269-7.132-10.546-11.075-19.851-11.075-18.68 0-32.947 20.566-32.947 53.243 0 12.474-10.732 31.509-18.258 31.509-4.181 0-8.632-7.68-8.632-27.304.021-13.376 1.844-58.911 1.844-58.911l26.268-.426c1.254-.012 1.98-1.383 2.445-2.228 1.207-2.449 1.79-4.08 1.79-7.012 0-2.645-.529-3.611-3.918-3.801l-26.181-1.573 1.113-24.41c.077-1.542-.851-2.546-2.532-3.298-5.073-1.981-11.287-3.899-15.224-3.899zm79.504 63.957c7.004 0 14.111 6.393 14.111 29.073 0 28.556-10.396 41.841-18.389 41.841-7.494 0-13.183-10.585-13.183-31.378 0-21.017 5.555-39.536 17.461-39.536zm252.229 0c7.004 0 14.111 6.393 14.111 29.073 0 28.556-10.396 41.841-18.389 41.841-7.494 0-13.183-10.585-13.183-31.378 0-21.017 5.555-39.536 17.461-39.536zm-159.979.131c9.141 0 13.183 9.427 13.183 27.708 0 27.558-8.185 43.25-18.127 43.25-6.347 0-13.644-10.429-13.26-30.941 0-13.116 4.273-40.017 18.203-40.017zm15.475 92.189v10.856c0 36.02-9.591 42.168-17.298 42.168-2.919 0-10.073-2.206-10.073-11.118 0-12.457 13.014-26.628 17.058-31.006l10.313-10.9z" fill="#3F5D87"/>
    </symbol>
    <symbol id="weibo-icon" viewBox="0 0 301 300">
        <g fill="none">
            <path d="M70.608 178.122c0 21.534 28.331 38.999 63.284 38.999s63.284-17.465 63.284-38.999c0-21.538-28.331-38.999-63.284-38.999s-63.284 17.461-63.284 38.999" id="Shape" fill="#fff"/>
            <path d="M135.367 213.943c-30.934 3.019-57.638-10.816-59.649-30.917-2.008-20.097 21.45-38.841 52.38-41.867 30.937-3.03 57.641 10.809 59.649 30.903 2.004 20.107-21.442 38.855-52.38 41.881m61.874-66.724c-2.631-.779-4.436-1.311-3.058-4.732 2.983-7.431 3.293-13.839.057-18.413-6.066-8.576-22.663-8.114-41.689-.229 0-.012-5.974 2.586-4.447-2.103 2.926-9.312 2.485-17.109-2.068-21.612-10.321-10.221-37.769.388-61.308 23.673-17.626 17.447-27.861 35.938-27.861 51.926 0 30.582 39.627 49.175 78.397 49.175 50.82 0 84.627-29.222 84.627-52.423 0-14.016-11.93-21.971-22.649-25.262" id="Shape" fill="#E6162D"/>
            <path d="M230.989 91.254c-12.272-13.466-30.375-18.599-47.086-15.083h-.005c-3.863.817-6.33 4.584-5.5 8.403.822 3.819 4.625 6.264 8.491 5.447 11.887-2.498 24.75 1.159 33.479 10.721 8.715 9.566 11.083 22.612 7.348 34.049l.002.002c-1.218 3.728.84 7.712 4.61 8.917 3.756 1.201 7.789-.835 9.007-4.549l.002-.028c5.237-16.091 1.93-34.43-10.349-47.881M212.142 108.086c-5.974-6.557-14.792-9.048-22.934-7.335-3.329.701-5.45 3.943-4.735 7.24.712 3.28 3.984 5.391 7.302 4.675v.005c3.98-.835 8.295.381 11.218 3.58 2.923 3.21 3.71 7.579 2.453 11.412h.005c-1.043 3.199.726 6.638 3.962 7.677 3.24 1.025 6.711-.722 7.754-3.928 2.56-7.839.961-16.771-5.027-23.328" id="Shape" fill="#f93"/>
            <path d="M137.074 177.54c-1.082 1.832-3.475 2.713-5.347 1.948-1.844-.75-2.421-2.797-1.374-4.598 1.079-1.79 3.379-2.664 5.216-1.941 1.869.676 2.538 2.748 1.506 4.591m-9.858 12.522c-2.99 4.725-9.399 6.793-14.226 4.612-4.756-2.142-6.159-7.631-3.165-12.236 2.955-4.587 9.146-6.631 13.938-4.644 4.845 2.044 6.394 7.494 3.453 12.268m11.243-33.436c-14.721-3.791-31.361 3.47-37.755 16.306-6.511 13.093-.214 27.626 14.657 32.379 15.408 4.915 33.564-2.618 39.88-16.75 6.227-13.815-1.549-28.038-16.782-31.935" fill="#000"/>
        </g>
    </symbol>
    <!-- Menu Icon -->
    <symbol id="ok-icon" viewBox="0 0 200 200">
        <g fill="none">
            <circle fill="#59DE5D" cx="100" cy="100" r="100"/>
            <path d="M78 137.05l68.236-68.236c1.367-1.367 3.583-1.367 4.95 0s1.367 3.583 0 4.95l-70.711 70.711c-.683.683-1.579 1.025-2.475 1.025-.896 0-1.791-.342-2.475-1.025l-25.456-25.456c-1.367-1.367-1.367-3.583 0-4.95s3.583-1.367 4.95 0l22.981 22.981z" fill="#fff"/>
        </g>
    </symbol>
    <svg id="play-icon" viewBox="0 0 100 100">
        <path d="M28.056 82.145c-3.344 1.931-6.056.362-6.056-3.496v-55.297c0-3.862 2.714-5.425 6.056-3.496l47.889 27.649c3.344 1.931 3.341 5.063 0 6.992l-47.889 27.649z" stroke="#FFF" stroke-linecap="round" stroke-linejoin="round" fill="#F1F1F1"/>
    </svg>
    <!-- Options Icon -->
    <svg id="like-icon" viewBox="0 0 20 20">
        <path d="M10 5.6c-.9-1.9-2.6-2.6-3.9-2.6-2 0-4.1 1.5-4.1 4.7 0 2.3 1.3 4.8 3.9 7.2 1.9 1.8 3.8 2.9 3.9 3l.2.1c.1 0 .2 0 .2-.1.1 0 2-1.2 3.9-3 2.6-2.5 3.9-4.9 3.9-7.2 0-3.2-2.1-4.7-4.1-4.7-1.3 0-3 .7-3.9 2.6z" fill="#DB4437"/>
    </svg>
    <svg id="reply-icon" viewBox="0 0 20 20">
        <path d="M8.667 2c3.682 0 6.667 2.548 6.667 5.69 0 3.143-2.985 5.69-6.667 5.69-.354 0-.701-.024-1.039-.069-1.432 1.504-3.086 1.774-4.738 1.814v-.368c.892-.459 1.611-1.296 1.611-2.252l-.028-.392c-1.508-1.043-2.472-2.637-2.472-4.422 0-3.143 2.985-5.69 6.667-5.69zm7.167 12.754c0 .819.504 1.537 1.278 1.93v.316c-1.432-.034-2.747-.265-3.988-1.555-.294.039-.594.059-.901.059-1.326 0-2.547-.377-3.522-1.011 2.009-.007 3.906-.686 5.345-1.914.725-.619 1.297-1.345 1.7-2.158.427-.862.644-1.781.644-2.731l-.017-.457c1.008.878 1.629 2.075 1.629 3.394 0 1.531-.836 2.896-2.142 3.79l-.024.336z" fill="#1D9035"/>
    </svg>
    <svg id="source-icon" viewBox="0 0 20 20">
        <path d="M15.657 15.657c1.511-1.511 2.343-3.52 2.343-5.657s-.832-4.146-2.343-5.657c-1.511-1.511-3.52-2.343-5.657-2.343s-4.146.832-5.657 2.343c-1.511 1.511-2.343 3.52-2.343 5.657s.832 4.146 2.343 5.657c1.511 1.511 3.52 2.343 5.657 2.343s4.146-.832 5.657-2.343zm-.707-10.607c.985.985 1.64 2.213 1.911 3.548-.211-.31-.412-.425-.537.269-.128 1.131-1.167.409-1.821.81-.688-.463-2.233.901-1.97-.638.405-.694 2.188.929 1.299-.54-.567-1.025-2.073-3.296-1.877-4.473.025-1.715-1.752-.358-2.364.211-.412 1.139-.14 3.131-1.217 3.689-1.169.051-2.172.157-2.625 1.464-.273.935.29 2.326 1.292 2.541 1.466.921 1.99-1.079 3.365-1.116.427.447 1.591.589 1.687 1.09-.902.159 1.145.759-.086 1.1-.679-.08-1.117-.704-.756-1.234-1.316-.307-1.358 1.905-2.624 1.207-.032-1.103-2.066-.358-.704-.134.468.205-.763.797-.098.689.327.018 1.427.403 1.129.663.613.38 1.127-.911 1.727.029.433.723-.182.856-.724.49-.306.343.54 1.082 1.286 1.402.249.107.486.165.668.148.376-.434 1.071-.509 1.107.052-.931.446-1.957.681-3.02.681-1.525 0-2.976-.485-4.177-1.381.323-.148.506-.332.195-.567-.242-.72-1.221-1.686-2.082-1.549-.447-.77-.741-1.619-.867-2.508.721-.238.887-.71.732-.868-.367-.32-.593-.774-.709-1.271.235-1.435.909-2.757 1.957-3.806 1.322-1.322 3.08-2.05 4.95-2.05s3.628.728 4.95 2.05z" fill="#DB4437"/>
    </svg>
    <svg id="retweet-icon" viewBox="0 0 28 20">
        <g fill="#1A7CAB">
            <path d="M15.892 14.8c-.075-.095-.179-.143-.312-.143h-7.189v-4.983h2.396c.216 0 .404-.082.562-.247.158-.164.237-.359.237-.584 0-.208-.063-.385-.187-.532l-3.994-4.983c-.158-.19-.362-.285-.612-.285s-.453.095-.611.285l-3.994 4.983c-.125.147-.187.324-.187.532 0 .225.079.42.237.584.158.164.345.247.562.247h2.396v7.786999999999999l.012.149.038.149.069.104.112.091.169.026h11.982c.108 0 .202-.041.281-.123.079-.082.118-.179.118-.292 0-.087-.029-.177-.087-.273l-1.997-2.492zM25.165 11.335h-2.396v-7.786999999999999l-.013-.149-.037-.149-.069-.104-.112-.091-.168-.026h-11.982c-.108 0-.202.041-.281.123-.079.082-.118.18-.118.292 0 .095.029.182.087.26l1.997 2.492c.075.104.179.156.312.156h7.189v4.983h-2.396c-.216 0-.404.082-.562.246-.158.165-.237.36-.237.584 0 .208.063.385.187.532l3.994 4.983c.166.199.37.299.612.299.241 0 .445-.099.611-.299l3.994-4.983c.125-.147.187-.325.187-.532 0-.225-.079-.419-.237-.584-.158-.164-.345-.247-.562-.247z"/>
        </g>
    </svg>
    <svg id="star-icon" viewBox="0 0 20 20">
        <path fill="#FFE33B" d="M10 15.627l-5.562 3.373 1.332-6.605-4.77-4.52 6.386-.709 2.614-6.167 2.614 6.167 6.386.709-4.77 4.52 1.332 6.605z"/>
    </svg>
    <svg id="options-icon" viewBox="0 0 100 30">
        <g fill="#CECECF">
            <circle cx="15" cy="15" r="15"/>
            <circle cx="50" cy="15" r="15"/>
            <circle cx="85" cy="15" r="15"/>
        </g>
    </svg>
    <svg id="twitter-eyeball-icon" viewBox="0 0 130 130">
        <g transform="translate(15 15)" fill="none">
            <circle stroke="#2AA9E0" stroke-width="5" cx="50" cy="50" r="50"/>
            <circle fill="#2AA9E0" cx="50" cy="50" r="16"/>
            <circle fill="#fff" cx="56.5" cy="43.5" r="3.5"/>
            <path d="M66 66.5l12.021 12.021m-18.629-7.544l7.185 15.407m-14.926-13.46l1.482 16.935m-9.422-17.753l-4.4 16.421m-2.782-19.905l-9.751 13.926m4.194-19.656l-13.926 9.751m10.664-17.036l-16.421 4.4m15.847-12.361l-16.935-1.482m19.12-6.196l-15.407-7.185m20.086.717l-12.021-12.021m18.629 7.544l-7.185-15.407m14.926 13.46l-1.482-16.935m9.422 17.753l4.4-16.421m2.782 19.905l9.751-13.926m-4.194 19.656l13.926-9.751m-10.664 17.036l16.421-4.4m-15.847 12.361l16.935 1.482m-19.12 6.196l15.407 7.185" stroke="#2AA9E0" stroke-linecap="round" stroke-linejoin="round"/>
        </g>
    </svg>
    <svg id="instagram-eyeball-icon" viewBox="0 0 130 130">
        <g transform="translate(15 15)" fill="none">
            <circle stroke="#3F5D87" stroke-width="5" cx="50" cy="50" r="50"/>
            <circle fill="#3F5D87" cx="50" cy="50" r="16"/>
            <circle fill="#fff" cx="56.5" cy="43.5" r="3.5"/>
            <path d="M66 66.5l12.021 12.021m-18.629-7.544l7.185 15.407m-14.926-13.46l1.482 16.935m-9.422-17.753l-4.4 16.421m-2.782-19.905l-9.751 13.926m4.194-19.656l-13.926 9.751m10.664-17.036l-16.421 4.4m15.847-12.361l-16.935-1.482m19.12-6.196l-15.407-7.185m20.086.717l-12.021-12.021m18.629 7.544l-7.185-15.407m14.926 13.46l-1.482-16.935m9.422 17.753l4.4-16.421m2.782 19.905l9.751-13.926m-4.194 19.656l13.926-9.751m-10.664 17.036l16.421-4.4m-15.847 12.361l16.935 1.482m-19.12 6.196l15.407 7.185" stroke="#3F5D87" stroke-linecap="round" stroke-linejoin="round"/>
        </g>
    </svg>
    <svg id="weibo-eyeball-icon" viewBox="0 0 130 130">
        <g transform="translate(15 15)" fill="none">
            <circle stroke="#E6162D" stroke-width="5" cx="50" cy="50" r="50"/>
            <circle fill="#E6162D" cx="50" cy="50" r="16"/>
            <circle fill="#fff" cx="56.5" cy="43.5" r="3.5"/>
            <path d="M66 66.5l12.021 12.021m-18.629-7.544l7.185 15.407m-14.926-13.46l1.482 16.935m-9.422-17.753l-4.4 16.421m-2.782-19.905l-9.751 13.926m4.194-19.656l-13.926 9.751m10.664-17.036l-16.421 4.4m15.847-12.361l-16.935-1.482m19.12-6.196l-15.407-7.185m20.086.717l-12.021-12.021m18.629 7.544l-7.185-15.407m14.926 13.46l-1.482-16.935m9.422 17.753l4.4-16.421m2.782 19.905l9.751-13.926m-4.194 19.656l13.926-9.751m-10.664 17.036l16.421-4.4m-15.847 12.361l16.935 1.482m-19.12 6.196l15.407 7.185" stroke="#E6162D" stroke-linecap="round" stroke-linejoin="round"/>
        </g>
    </svg>
    <!-- Replicant -->
    <svg id="replicant-deckard-icon" viewBox="0 0 122 100">
        <path d="M119.165 0h-115.492c-1.879 0-3.673 1.513-3.673 3.361v75.798c0 1.849 1.879 3.277 3.673 3.277h46.983l-1.196 7.563c-.256 1.765-1.367 4.454-2.477 5.882l-1.196 1.513c-1.11 1.429-.513 2.605 1.367 2.605h28.36c1.879 0 2.477-1.176 1.367-2.605l-1.196-1.513c-1.11-1.429-2.221-4.118-2.477-5.966l-1.196-7.563h46.983c1.879 0 2.99-1.429 2.99-3.277v-75.714c.171-1.849-1.025-3.361-2.819-3.361zm-58.088 1.681c.256 0 .427.168.427.42s-.171.42-.427.42-.427-.168-.427-.42.171-.42.427-.42zm56.806 65.546h-113.612v-63.025h113.612v63.025z" fill="#fff"/>
    </svg>
    <svg id="replicant-rachael-icon" viewBox="0 0 48 100">
        <path d="M38.682 0h-29.365c-5.082 0-9.318 4.167-9.318 9.167v81.667c0 5 4.235 9.167 9.318 9.167h29.365c5.082 0 9.318-4.167 9.318-9.167v-81.667c0-5-4.235-9.167-9.318-9.167zm-14.682 2.778c.847 0 1.412.556 1.412 1.389s-.565 1.389-1.412 1.389-1.412-.556-1.412-1.389.565-1.389 1.412-1.389zm-4.235 5.556h8.471c.847 0 1.412.556 1.412 1.389s-.565 1.389-1.412 1.389h-8.471c-.847 0-1.412-.556-1.412-1.389s.565-1.389 1.412-1.389zm4.235 88.889c-2.259 0-4.235-1.944-4.235-4.167 0-2.222 1.976-4.167 4.235-4.167 2.259 0 4.235 1.944 4.235 4.167 0 2.222-1.976 4.167-4.235 4.167zm21.176-11.111h-42.353v-72.222h42.353v72.222z" fill="#fff"/>
    </svg>
</svg>