<svg viewBox="0 0 200 200" xmlns="http://www.w3.org/2000/svg">
    <g fill="none">
        <circle fill="#2AA9E0" cx="100" cy="100" r="100"/>
        <path d="M143 57s-.108 5.596-6.828 11.407c-5.419 4.735-10.946 7.317-14.848 11.945 3.902.215 10.838-1.507 16.04-4.304-.867 2.475-1.626 4.197-3.251 6.457-4.877 6.564-9.971 8.932-18.316 11.514-4.769 1.507-7.803 5.488-7.803 5.488 5.094.215 10.079-.753 15.065-2.583-1.951 8.824-17.341 14.742-24.494 15.603 0 0 0 .108-.108.108-9.646 1.614-18.424 10.976-25.794 22.706-3.576 5.703-6.394 9.9-8.454 13.021-3.143 4.95-6.286 9.039-7.478 8.609-1.192-.43-1.084-4.52 1.517-11.191 1.409-3.659 8.128-19.154 19.508-35.834 14.631-21.737 36.307-46.38 65.244-52.944z" fill="#fff"/>
    </g>
</svg>