<svg viewBox="0 0 20 20" xmlns="http://www.w3.org/2000/svg">
    <path d="M9.083 2c3.912 0 7.083 2.717 7.083 6.069s-3.171 6.069-7.083 6.069c-.376 0-.744-.025-1.104-.074-1.522 1.605-3.279 1.892-5.035 1.935v-.393c.948-.49 1.712-1.382 1.712-2.402 0-.142-.011-.282-.03-.419-1.602-1.113-2.626-2.812-2.626-4.717 0-3.352 3.171-6.069 7.083-6.069zm7.615 13.604c0 .874.536 1.639 1.358 2.059v.337c-1.522-.036-2.919-.283-4.237-1.658-.312.041-.632.063-.957.063-1.409 0-2.707-.402-3.743-1.079 2.135-.008 4.151-.732 5.679-2.042.77-.66 1.378-1.435 1.806-2.302.454-.92.684-1.9.684-2.913l-.019-.487c1.071.936 1.73 2.213 1.73 3.62 0 1.633-.888 3.089-2.276 4.043l-.026.359z" fill="#000"/>
</svg>