<svg viewBox="0 0 20 20" xmlns="http://www.w3.org/2000/svg">
    <g fill="#000">
        <path d="M7.095 4.007c2.015-.002 6.586-.002 8.6 0 .326-.016.63.301.631.679.006 1.919 0 3.839.003 5.758l2.672.002c-1.185 1.505-2.38 3-3.57 4.499-.055.116-.121.002-.171-.055-1.168-1.487-2.357-2.951-3.521-4.441.888-.009 1.775 0 2.663-.004.009-1.408.008-2.816 0-4.224-.959-.004-4.474 0-5.433-.002-.619-.743-1.258-1.464-1.873-2.211zM4.571 4.056c.062-.125.133.02.188.077 1.164 1.477 2.347 2.935 3.503 4.42l-2.668.006c-.004 1.406-.002 2.812-.001 4.217.962.01 4.585-.001 5.547.006.619.742 1.258 1.462 1.87 2.211-2.026 0-6.713.002-8.739-.001-.329.004-.613-.341-.599-.716l-.001-5.718-2.671-.003c1.183-1.507 2.378-3.003 3.571-4.499z"/>
    </g>
</svg>