<svg viewBox="0 0 200 200" xmlns="http://www.w3.org/2000/svg"><g fill="none"><circle fill="#ED2B35" cx="100" cy="100" r="100"/><path d="M135.001 68.125c3.866 0 6.735 3.131 6.4 6.995l-9.717 83.009c-.569 3.864-3.329 6.995-6.145 6.995h-51.077c-2.821 0-5.576-3.131-6.145-6.995l-9.717-83.009c-.335-3.864 2.54-6.995 6.4-6.995h70.001zm-31.326-13l-.654-5.583c-.054-.368-.317-.667-.586-.667h-4.871c-.269 0-.532.299-.586.667l-.654 5.583h-38.331c-1.652 0-2.994 1.343-2.994 3 0 1.653 1.341 3 2.994 3h84.011c1.652 0 2.994-1.343 2.994-3 0-1.653-1.341-3-2.994-3h-38.331z" fill="#fff"/></g></svg>