<svg viewBox="0 0 300 300" xmlns="http://www.w3.org/2000/svg">
    <path d="M243 92.756c-6.843 3.012-14.198 5.047-21.916 5.963 7.878-4.686 13.93-12.107 16.778-20.95-7.374 4.34-15.54 7.491-24.233 9.189-6.96-7.36-16.878-11.958-27.854-11.958-21.074 0-38.161 16.954-38.161 37.867 0 2.968.338 5.858.989 8.63-31.715-1.579-59.833-16.655-78.654-39.566-3.285 5.593-5.167 12.097-5.167 19.037 0 13.138 6.737 24.729 16.976 31.519-6.255-.197-12.139-1.9-17.284-4.736l-.004.476c0 18.347 13.154 33.651 30.611 37.132-3.202.866-6.573 1.328-10.053 1.328-2.459 0-4.849-.238-7.18-.679 4.856 15.044 18.949 25.992 35.648 26.296-13.06 10.157-29.514 16.211-47.393 16.211-3.08 0-6.118-.18-9.103-.53 16.888 10.745 36.946 17.014 58.496 17.014 70.19 0 108.574-57.701 108.574-107.743 0-1.642-.037-3.274-.111-4.9 7.455-5.338 13.924-12.007 19.04-19.601h.001z" fill="#2AA9E0"/>
</svg>