<svg viewBox="0 0 130 130" xmlns="http://www.w3.org/2000/svg">
    <g fill="none">
        <circle stroke="#3F5D87" stroke-width="5" cx="65" cy="65" r="50"/>
        <path d="M65 81c8.837 0 16-7.163 16-16s-7.163-16-16-16-16 7.163-16 16 7.163 16 16 16zm6.5-19c1.933 0 3.5-1.567 3.5-3.5s-1.567-3.5-3.5-3.5-3.5 1.567-3.5 3.5 1.567 3.5 3.5 3.5z" fill="#3F5D87"/>
        <path d="M81 81.5l12.021 12.021m-18.629-7.544l7.185 15.407m-14.926-13.46l1.482 16.935m-9.422-17.753l-4.4 16.421m-2.782-19.905l-9.751 13.926m4.194-19.656l-13.926 9.751m10.664-17.036l-16.421 4.4m15.847-12.361l-16.935-1.482m19.12-6.196l-15.407-7.185m20.086.717l-12.021-12.021m18.629 7.544l-7.185-15.407m14.926 13.46l-1.482-16.935m9.422 17.753l4.4-16.421m2.782 19.905l9.751-13.926m-4.194 19.656l13.926-9.751m-10.664 17.036l16.421-4.4m-15.847 12.361l16.935 1.482m-19.12 6.196l15.407 7.185" stroke="#3F5D87"/>
    </g>
</svg>