<svg viewBox="0 0 775 300" xmlns="http://www.w3.org/2000/svg"><path d="M44.406 41c-7.087 0-16.276 7.521-21.696 12.527-11.917 10.587-22.711 30.051-22.711 45.674 0 22.2 18.867 30.58 23.638 30.58 1.573 0 2.914-.812 2.914-2.949 0-1.674-1.062-3.068-2.117-4.5-4.369-6.685-5.773-13.064-5.773-21.668 0-17.94 8.268-34.383 15.126-41.906 1.264-1.361 4.122-4.303 4.977-4.303.848 0 1.059.691 1.059 2.829l-.797 117.418c0 18.355-5.293 25.648-5.293 29.969 0 1.899.821 2.392 2.39 2.392 7.428 0 14.83-9.059 16.927-12.363 6.503-11.239 8.098-20.015 8.098-45.325v-98.666c0-2.671-.749-3.824-3.285-5.472-3.706-2.356-7.953-4.238-13.456-4.238zm212.363.328c-3.493 0-4.987 1.827-5.151 7.481l-.775 23.416-20.463-.71c-1.241-.032-1.803.36-2.346 1.453-1.738 3.262-2.652 5.816-2.652 10.07 0 3.464 1.57 3.833 2.968 3.833l21.292.612-.065 44.735c0 9.488-5.982 21.797-16.599 32.033 0 0 .913-3.091.862-6.335 0-9.179-5.904-17.497-13.773-23.383l-19.207-14.46c4.026-4.661 10.848-13.907 10.848-21.712 0-6.052-3.803-8.595-10.892-8.595-10.006 0-21.608 9.171-21.608 22.772 0 4.957 2.204 9.42 5.555 12.833-4.626 8.785-11.172 20.342-16.032 28.571-3.672 6.302-9.882 15.957-13.554 15.957-2.709 0-3.962-4.266-3.962-20.653 0-13.615.966-28.417 1.451-42.627 0-3.257-.535-6.262-4.758-9.207-3.886-2.492-8.687-5.974-13.631-5.974-10.991 0-18.48 10.122-23.616 20.019-5.315 10.257-8.189 18.9-12.245 31.443l.447-43.162c.138-3.077-.638-4.272-3.099-5.319-3.192-1.355-7.891-2.916-12.059-2.916-3.484 0-3.907 1.502-3.907 5.166l-.469 51.79-.054 19.976c0 18.01 2.254 21.013 12.932 21.013 5.912 0 7.807-.695 7.923-5.614.162-3.254 1.716-11.134 3.82-19.036 6.151-23.328 13.44-41.78 26.006-55.842 1.311-1.364 2.323-.876 2.117 1.059 0 0-1.986 31.571-1.986 44.484 0 22.966 3.531 34.949 14.951 34.949 11.207 0 22.213-14.409 28.222-24.137l19.273-32.262c12.489 10.65 21.205 18.908 21.205 28.953 0 6.243-3.937 12.352-9.931 12.352-7.494 0-12.281-7.907-17.341-7.907-4.201 0-9.593 8.116-9.593 12.724 0 4.351 9.486 10.507 26.508 10.507 25.128 0 38.607-17.258 46.698-36.369 1.549 22.682 10.579 35.932 24.664 35.932 9.239 0 19.917-11.682 24.773-25.95 0 0 .48 3.704 4.169 11.293 5.077 9.91 12.796 14.46 22.383 14.46 11.925 0 22.125-7.235 28.353-19.375.944 9.199 8.662 19.331 21.074 19.331 7.791 0 14.895-5.974 19.557-15.815 0 0 6.04 16.251 23.507 16.251 9.812 0 21.43-9.095 24.206-15.705l.306 9.611-25.919 23.918c-7.525 7.311-15.53 17.816-15.53 29.445 0 14.791 13.955 23.296 26.236 23.296 12.765 0 21.235-8.093 25.876-14.875 5.84-8.775 8.305-25.315 8.305-41.48l-.578-24.311c17.468-19.216 31.138-45.776 37.225-64.568l13.26-.35c2.568-.172 2.442.839 2.084 2.337-2.331 9.855-4.365 21.016-4.365 32.131 0 18.363 4.227 26.354 10.302 32.885 5.281 5.472 10.535 7.317 16.064 7.317 10.813 0 17.6-8.936 19.753-14.569 5.077 9.91 12.556 14.526 22.143 14.526 11.925 0 22.125-7.235 28.353-19.375.944 9.199 8.662 19.331 21.074 19.331 9.273 0 14.65-5.356 18.88-15.443.087 3.245.211 6.705.306 9.95.111 1.678 1.452 2.74 2.652 3.178 3.942 1.492 7.402 2.239 10.51 2.239 8.106 0 9.866-1.666 9.866-6.968 0-8.745.256-22.565 2.739-33.66 2.637-11.044 6.614-23.551 12.103-32.252.494-.899 1.706-.663 1.757.426.788 18.617 2.033 50.131 6.919 58.289 2.412 3.891 6.141 6.728 11.721 6.728 2.618 0 5.824-1.117 6.646-1.813.832-.649 1.251-1.369 1.2-2.709 0-23.799 7.415-46.838 14.842-62.33.203-.459.782-.495.764.109l-.415 17.147c0 28.164 2.029 45.957 16.086 54.51 2.152 1.195 5.176 2.348 9.047 2.348 7.192 0 13.714-4.02 16.937-10.485 2.626-5.024 5.086-14.693 5.086-20.172 0-2.121.025-5.57-3.449-5.57-1.905 0-3.048 1.404-3.503 3.528-1.107 4.599-2.016 8.545-3.732 13.095-1.642 4.342-4.093 6.87-6.995 6.87-3.413 0-5.143-2.687-6.133-4.347-4.355-6.645-4.704-21.912-4.704-34.654l1.048-32.798c0-2.713-1.132-5.961-5.315-8.355-2.809-1.618-9.912-4.664-14.264-4.664-4.035 0-5.988 2.289-7.443 5.646-2.731 6.03-11.859 29.686-14.307 48.918-.088.507-.718.614-.764-.033-1.272-13.6-1.925-29.987-1.91-41.043 0-3.342-.817-8.12-7.901-11.217-3.442-1.429-6.291-2.304-9.767-2.304-4.316 0-5.243 2.113-6.788 4.915-4.888 9.038-8.269 20.825-13.336 35.692l.076-34.021c0-1.591-.974-3.677-3.765-4.238-6.92-1.591-10.127-2.315-12.856-2.315-1.986 0-3.078 1.585-3.078 3.298l-.371 58.005c-1.338 7.102-6.763 24.049-14.46 24.049-6.317 0-9.265-6.405-9.265-33.18l1.146-43.512c0-2.749-1.803-3.904-4.431-5.068-3.757-1.494-6.746-2.086-10.564-2.086-4.792 0-6.438 2.296-5.468 7.809-5.269-7.132-10.535-11.075-19.84-11.075-18.68 0-32.762 22.488-32.762 55.165-.184 9.164 2.03 18.272 2.03 18.272-1.69 7.605-5.664 13.805-11.153 13.805-6.925 0-11.339-9.799-11.339-26.78 0-17.031 6.483-36.241 6.483-41.447 0-6.054-3.963-9.884-10.979-9.884-3.516 0-16.551 2.96-23.234 3.932 0 0 .753-3.185.698-5.69 0-5.97-2.799-9.709-9.746-9.709-8.491 0-14.722 6.067-14.722 16.415 0 4.645 2.672 8.94 6.21 11.249-4.592 19.166-12.058 33.42-23.06 49.344l.928-64.481c0-2.096-.557-3.398-4.66-4.991-2.169-.938-5.704-2.02-10.16-2.02-6.458 0-6.032 4.616-5.686 8.071-2.955-5.244-9.425-11.468-19.404-11.468-27.197 0-35.547 41.504-31.452 70.979 0 3.594-3.505 16.35-11.426 16.35-6.317 0-9.265-6.405-9.265-33.18l1.157-43.512c0-2.749-1.814-3.904-4.442-5.068-3.757-1.494-6.735-2.086-10.553-2.086-4.792 0-6.438 2.296-5.468 7.809-5.269-7.132-10.546-11.075-19.851-11.075-18.68 0-32.947 20.566-32.947 53.243 0 12.474-10.732 31.509-18.258 31.509-4.181 0-8.632-7.68-8.632-27.304.021-13.376 1.844-58.911 1.844-58.911l26.268-.426c1.254-.012 1.98-1.383 2.445-2.228 1.207-2.449 1.79-4.08 1.79-7.012 0-2.645-.529-3.611-3.918-3.801l-26.181-1.573 1.113-24.41c.077-1.542-.851-2.546-2.532-3.298-5.073-1.981-11.287-3.899-15.224-3.899zm79.504 63.957c7.004 0 14.111 6.393 14.111 29.073 0 28.556-10.396 41.841-18.389 41.841-7.494 0-13.183-10.585-13.183-31.378 0-21.017 5.555-39.536 17.461-39.536zm252.229 0c7.004 0 14.111 6.393 14.111 29.073 0 28.556-10.396 41.841-18.389 41.841-7.494 0-13.183-10.585-13.183-31.378 0-21.017 5.555-39.536 17.461-39.536zm-159.979.131c9.141 0 13.183 9.427 13.183 27.708 0 27.558-8.185 43.25-18.127 43.25-6.347 0-13.644-10.429-13.26-30.941 0-13.116 4.273-40.017 18.203-40.017zm15.475 92.189v10.856c0 36.02-9.591 42.168-17.298 42.168-2.919 0-10.073-2.206-10.073-11.118 0-12.457 13.014-26.628 17.058-31.006l10.313-10.9z" fill="#3F5D87"/></svg>