<svg viewBox="0 0 20 20" xmlns="http://www.w3.org/2000/svg">
    <path d="M8.667 2c3.682 0 6.667 2.548 6.667 5.69 0 3.143-2.985 5.69-6.667 5.69-.354 0-.701-.024-1.039-.069-1.432 1.504-3.086 1.774-4.738 1.814v-.368c.892-.459 1.611-1.296 1.611-2.252l-.028-.392c-1.508-1.043-2.472-2.637-2.472-4.422 0-3.143 2.985-5.69 6.667-5.69zm7.167 12.754c0 .819.504 1.537 1.278 1.93v.316c-1.432-.034-2.747-.265-3.988-1.555-.294.039-.594.059-.901.059-1.326 0-2.547-.377-3.522-1.011 2.009-.007 3.906-.686 5.345-1.914.725-.619 1.297-1.345 1.7-2.158.427-.862.644-1.781.644-2.731l-.017-.457c1.008.878 1.629 2.075 1.629 3.394 0 1.531-.836 2.896-2.142 3.79l-.024.336z" fill="#1D9035"/>
</svg>