<svg viewBox="0 0 26 26" xmlns="http://www.w3.org/2000/svg">
    <path d="M11.75 3c4.832 0 8.75 3.397 8.75 7.587 0 4.19-3.918 7.587-8.75 7.587-.464 0-.92-.032-1.364-.092-1.88 2.006-4.05 2.365-6.219 2.418v-.491c1.171-.612 2.115-1.728 2.115-3.003 0-.178-.013-.353-.037-.523-1.979-1.391-3.244-3.515-3.244-5.896 0-4.19 3.918-7.587 8.75-7.587zm9.406 17.006c0 1.093.662 2.049 1.677 2.574v.421c-1.88-.045-3.605-.354-5.234-2.073-.385.052-.78.079-1.182.079-1.74 0-3.343-.503-4.623-1.348 2.637-.01 5.127-.915 7.015-2.552.952-.825 1.702-1.793 2.232-2.878.561-1.15.845-2.375.845-3.641 0-.204-.008-.407-.023-.609 1.323 1.171 2.138 2.766 2.138 4.525 0 2.041-1.097 3.862-2.812 5.054-.021.146-.032.296-.032.449z"/>
</svg>