<svg viewBox="0 0 34 26" xmlns="http://www.w3.org/2000/svg">
    <path d="M19.231 18.385c-.087-.108-.209-.162-.364-.162h-8.4v-5.667h2.8c.253 0 .472-.094.656-.28.185-.187.277-.408.277-.664 0-.236-.073-.438-.219-.605l-4.667-5.667c-.185-.216-.423-.325-.715-.325s-.53.108-.714.325l-4.667 5.667c-.146.167-.219.369-.219.605 0 .256.093.477.277.664.185.187.404.28.656.28h2.8v8.854000000000001l.015.17.044.17.08.118.131.103.197.029h14c.126 0 .236-.047.328-.14.092-.093.138-.204.138-.332 0-.099-.034-.202-.102-.31l-2.333-2.833zm10.835-3.94h-2.8v-8.854000000000001l-.015-.17-.044-.17-.08-.118-.131-.103-.197-.03h-14c-.126 0-.236.047-.328.14-.092.094-.138.204-.138.332 0 .108.034.207.102.295l2.333 2.833c.087.118.209.177.365.177h8.4v5.667h-2.8c-.253 0-.472.094-.656.28-.185.187-.277.409-.277.664 0 .236.073.438.219.605l4.667 5.667c.194.226.432.339.715.339.282 0 .52-.113.714-.339l4.667-5.667c.146-.168.219-.369.219-.605 0-.255-.092-.477-.277-.664-.185-.187-.403-.28-.656-.28z"/>
</svg>