<svg viewBox="0 0 28 20" xmlns="http://www.w3.org/2000/svg">
    <g fill="#000">
        <path d="M15.892 14.8c-.075-.095-.179-.143-.312-.143h-7.189v-4.983h2.396c.216 0 .404-.082.562-.247.158-.164.237-.359.237-.584 0-.208-.063-.385-.187-.532l-3.994-4.983c-.158-.19-.362-.285-.612-.285s-.453.095-.611.285l-3.994 4.983c-.125.147-.187.324-.187.532 0 .225.079.42.237.584.158.164.345.247.562.247h2.396v7.786999999999999l.012.149.038.149.069.104.112.091.169.026h11.982c.108 0 .202-.041.281-.123.079-.082.118-.179.118-.292 0-.087-.029-.177-.087-.273l-1.997-2.492zM25.165 11.335h-2.396v-7.786999999999999l-.013-.149-.037-.149-.069-.104-.112-.091-.168-.026h-11.982c-.108 0-.202.041-.281.123-.079.082-.118.18-.118.292 0 .095.029.182.087.26l1.997 2.492c.075.104.179.156.312.156h7.189v4.983h-2.396c-.216 0-.404.082-.562.246-.158.165-.237.36-.237.584 0 .208.063.385.187.532l3.994 4.983c.166.199.37.299.612.299.241 0 .445-.099.611-.299l3.994-4.983c.125-.147.187-.325.187-.532 0-.225-.079-.419-.237-.584-.158-.164-.345-.247-.562-.247z"/>
    </g>
</svg>