<svg viewBox="0 0 20 20" xmlns="http://www.w3.org/2000/svg">
    <path d="M15.657 15.657c1.511-1.511 2.343-3.52 2.343-5.657s-.832-4.146-2.343-5.657c-1.511-1.511-3.52-2.343-5.657-2.343s-4.146.832-5.657 2.343c-1.511 1.511-2.343 3.52-2.343 5.657s.832 4.146 2.343 5.657c1.511 1.511 3.52 2.343 5.657 2.343s4.146-.832 5.657-2.343zm-.707-10.607c.985.985 1.64 2.213 1.911 3.548-.211-.31-.412-.425-.537.269-.128 1.131-1.167.409-1.821.81-.688-.463-2.233.901-1.97-.638.405-.694 2.188.929 1.299-.54-.567-1.025-2.073-3.296-1.877-4.473.025-1.715-1.752-.358-2.364.211-.412 1.139-.14 3.131-1.217 3.689-1.169.051-2.172.157-2.625 1.464-.273.935.29 2.326 1.292 2.541 1.466.921 1.99-1.079 3.365-1.116.427.447 1.591.589 1.687 1.09-.902.159 1.145.759-.086 1.1-.679-.08-1.117-.704-.756-1.234-1.316-.307-1.358 1.905-2.624 1.207-.032-1.103-2.066-.358-.704-.134.468.205-.763.797-.098.689.327.018 1.427.403 1.129.663.613.38 1.127-.911 1.727.029.433.723-.182.856-.724.49-.306.343.54 1.082 1.286 1.402.249.107.486.165.668.148.376-.434 1.071-.509 1.107.052-.931.446-1.957.681-3.02.681-1.525 0-2.976-.485-4.177-1.381.323-.148.506-.332.195-.567-.242-.72-1.221-1.686-2.082-1.549-.447-.77-.741-1.619-.867-2.508.721-.238.887-.71.732-.868-.367-.32-.593-.774-.709-1.271.235-1.435.909-2.757 1.957-3.806 1.322-1.322 3.08-2.05 4.95-2.05s3.628.728 4.95 2.05z" fill="#000"/>
</svg>