<svg viewBox="0 0 26 26" xmlns="http://www.w3.org/2000/svg">
    <path d="M20.071 20.071c1.889-1.889 2.929-4.4 2.929-7.071 0-2.671-1.04-5.182-2.929-7.071-1.889-1.889-4.4-2.929-7.071-2.929-2.671 0-5.182 1.04-7.071 2.929-1.889 1.889-2.929 4.4-2.929 7.071 0 2.671 1.04 5.182 2.929 7.071 1.889 1.889 4.4 2.929 7.071 2.929 2.671 0 5.182-1.04 7.071-2.929zm-.884-13.258c1.232 1.232 2.051 2.766 2.388 4.435-.263-.387-.515-.531-.671.336-.161 1.414-1.459.511-2.276 1.013-.859-.579-2.791 1.126-2.463-.797.507-.868 2.735 1.161 1.624-.675-.708-1.282-2.591-4.12-2.346-5.591.031-2.143-2.19-.447-2.955.264-.515 1.424-.175 3.914-1.521 4.611-1.461.063-2.715.196-3.281 1.829-.341 1.169.363 2.908 1.615 3.177 1.833 1.152 2.488-1.349 4.207-1.395.534.558 1.989.736 2.109 1.362-1.128.199 1.431.948-.108 1.375-.849-.1-1.396-.88-.945-1.542-1.645-.384-1.698 2.381-3.279 1.509-.04-1.379-2.582-.447-.88-.167.585.256-.954.996-.123.862.409.022 1.784.504 1.412.828.766.475 1.409-1.138 2.159.037.541.904-.227 1.07-.905.612-.382.428.675 1.353 1.608 1.753.311.133.608.206.835.185.47-.543 1.339-.637 1.384.065-1.164.557-2.447.852-3.775.852-1.907 0-3.72-.606-5.221-1.726.403-.185.632-.415.244-.709-.302-.899-1.527-2.107-2.602-1.936-.558-.963-.926-2.024-1.083-3.135.901-.298 1.108-.888.915-1.085-.459-.4-.741-.967-.886-1.588.293-1.794 1.136-3.447 2.447-4.757 1.653-1.653 3.85-2.563 6.187-2.563s4.535.91 6.187 2.563z"/>
</svg>