<svg viewBox="0 0 300 300" xmlns="http://www.w3.org/2000/svg">
    <g fill="none">
        <g>
            <path d="M70.608 178.122c0 21.534 28.331 38.999 63.284 38.999s63.284-17.465 63.284-38.999c0-21.538-28.331-38.999-63.284-38.999s-63.284 17.461-63.284 38.999" id="Shape" fill="#fff"/>
            <path d="M135.367 213.943c-30.934 3.019-57.638-10.816-59.649-30.917-2.008-20.097 21.45-38.841 52.38-41.867 30.937-3.03 57.641 10.809 59.649 30.903 2.004 20.107-21.442 38.855-52.38 41.881m61.874-66.724c-2.631-.779-4.436-1.311-3.058-4.732 2.983-7.431 3.293-13.839.057-18.413-6.066-8.576-22.663-8.114-41.689-.229 0-.012-5.974 2.586-4.447-2.103 2.926-9.312 2.485-17.109-2.068-21.612-10.321-10.221-37.769.388-61.308 23.673-17.626 17.447-27.861 35.938-27.861 51.926 0 30.582 39.627 49.175 78.397 49.175 50.82 0 84.627-29.222 84.627-52.423 0-14.016-11.93-21.971-22.649-25.262" id="Shape" fill="#E6162D"/>
            <path d="M230.989 91.254c-12.272-13.466-30.375-18.599-47.086-15.083h-.005c-3.863.817-6.33 4.584-5.5 8.403.822 3.819 4.625 6.264 8.491 5.447 11.887-2.498 24.75 1.159 33.479 10.721 8.715 9.566 11.083 22.612 7.348 34.049l.002.002c-1.218 3.728.84 7.712 4.61 8.917 3.756 1.201 7.789-.835 9.007-4.549l.002-.028c5.237-16.091 1.93-34.43-10.349-47.881m-18.846 16.834c-5.974-6.557-14.792-9.048-22.934-7.335-3.329.701-5.45 3.943-4.735 7.24.712 3.28 3.984 5.391 7.302 4.675v.005c3.98-.835 8.295.381 11.218 3.58 2.923 3.21 3.71 7.579 2.453 11.412h.005c-1.043 3.199.726 6.638 3.962 7.677 3.24 1.025 6.711-.722 7.754-3.928 2.56-7.839.961-16.771-5.027-23.328" id="Shape" fill="#f93"/>
            <path d="M137.074 177.54c-1.082 1.832-3.475 2.713-5.347 1.948-1.844-.75-2.421-2.797-1.374-4.598 1.079-1.79 3.379-2.664 5.216-1.941 1.869.676 2.538 2.748 1.506 4.591m-9.858 12.522c-2.99 4.725-9.399 6.793-14.226 4.612-4.756-2.142-6.159-7.631-3.165-12.236 2.955-4.587 9.146-6.631 13.938-4.644 4.845 2.044 6.394 7.494 3.453 12.268m11.243-33.436c-14.721-3.791-31.361 3.47-37.755 16.306-6.511 13.093-.214 27.626 14.657 32.379 15.408 4.915 33.564-2.618 39.88-16.75 6.227-13.815-1.549-28.038-16.782-31.935" fill="#000"/>
        </g>
        <g>
            <path d="M147 50h7v200h-7v-200zm42 0h7v200h-7v-200zm-84 0h7v200h-7v-200zm-42 0h7v200h-7v-200zm168 0h7v200h-7v-200z" fill="#fff"/>
            <path stroke="#fff" stroke-width="7" d="M20 50h260v200h-260z"/>
        </g>
    </g>
</svg>